<?xml version="1.0" encoding="utf-8"?>
<!-- Generator: Adobe Illustrator 16.0.4, SVG Export Plug-In . SVG Version: 6.00 Build 0)  -->
<!DOCTYPE svg PUBLIC "-//W3C//DTD SVG 1.1//EN" "http://www.w3.org/Graphics/SVG/1.1/DTD/svg11.dtd">
<svg version="1.1" id="Layer_1" xmlns="http://www.w3.org/2000/svg" xmlns:xlink="http://www.w3.org/1999/xlink" x="0px" y="0px"
	 width="95px" height="108px" viewBox="0 0 95 108" enable-background="new 0 0 95 108" xml:space="preserve">
<title>icon / advice</title>
<desc>Created with Sketch.</desc>
<path id="Page-1" fill="#081938" d="M72,47.25c0-6.678-2.619-12.938-7.375-17.626C59.953,25.024,53.797,22.5,47.25,22.5
	c-0.122,0-0.248,0-0.369,0.004c-12.964,0.189-24.129,11.3-24.376,24.264c-0.193,10.229,5.783,19.386,15.228,23.328
	c1.674,0.697,2.768,2.34,2.768,4.153V81H54v-6.75c0-1.813,1.094-3.456,2.768-4.153C66.02,66.24,72,57.271,72,47.25L72,47.25z
	 M81,47.25c0,12.636-6.971,24.048-18,29.854V81c0,4.963-4.037,9-9,9H40.5c-4.963,0-9-4.037-9-9v-3.896
	c-11.264-5.922-18.238-17.586-17.996-30.511c0.347-17.986,15.26-32.827,33.246-33.088c9.122,0.045,17.703,3.316,24.192,9.707
	C77.427,29.605,81,38.146,81,47.25L81,47.25z M63,96.75c0-1.242-1.008-2.25-2.25-2.25h-27c-1.242,0-2.25,1.008-2.25,2.25
	S32.508,99,33.75,99h27C61.992,99,63,97.992,63,96.75L63,96.75z M38.25,103.5c-1.242,0-2.25,1.008-2.25,2.25s1.008,2.25,2.25,2.25
	h18c1.242,0,2.25-1.008,2.25-2.25s-1.008-2.25-2.25-2.25H38.25z"/>
<path id="Path" fill="#0EA800" d="M84.843,14.157c-0.882-0.878-2.304-0.878-3.186,0l-4.5,4.5c-0.878,0.882-0.878,2.304,0,3.186
	c0.44,0.437,1.017,0.657,1.593,0.657s1.152-0.221,1.593-0.657l4.5-4.5C85.721,16.461,85.721,15.039,84.843,14.157L84.843,14.157z"/>
<path id="Path_1_" fill="#0EA800" d="M12.843,18.657l-4.5-4.5c-0.882-0.878-2.304-0.878-3.186,0c-0.878,0.882-0.878,2.304,0,3.186
	l4.5,4.5c0.441,0.437,1.017,0.657,1.593,0.657s1.152-0.221,1.593-0.657C13.721,20.961,13.721,19.539,12.843,18.657L12.843,18.657z"
	/>
<path id="Path_2_" fill="#0EA800" d="M2.25,49.5h4.5C7.992,49.5,9,48.492,9,47.25S7.992,45,6.75,45h-4.5C1.008,45,0,46.008,0,47.25
	S1.008,49.5,2.25,49.5L2.25,49.5z"/>
<path id="Path_3_" fill="#0EA800" d="M92.25,45h-4.5c-1.242,0-2.25,1.008-2.25,2.25s1.008,2.25,2.25,2.25h4.5
	c1.242,0,2.25-1.008,2.25-2.25S93.492,45,92.25,45L92.25,45z"/>
<path id="Path_4_" fill="#0EA800" d="M49.5,6.75v-4.5C49.5,1.008,48.492,0,47.25,0S45,1.008,45,2.25v4.5C45,7.992,46.008,9,47.25,9
	S49.5,7.992,49.5,6.75L49.5,6.75z"/>
<circle fill="#0EA800" cx="47.333" cy="34.833" r="2.333"/>
<path fill="#0EA800" d="M49.333,60.583c0,1.15-0.933,2.083-2.083,2.083l0,0c-1.151,0-2.083-0.933-2.083-2.083V43.249
	c0-1.15,0.933-2.083,2.083-2.083l0,0c1.15,0,2.083,0.933,2.083,2.083V60.583z"/>
</svg>
