<?xml version="1.0" encoding="UTF-8"?>
<svg width="75px" height="95px" viewBox="0 0 75 95" version="1.1" xmlns="http://www.w3.org/2000/svg" xmlns:xlink="http://www.w3.org/1999/xlink">
    <!-- Generator: Sketch 47.1 (45422) - http://www.bohemiancoding.com/sketch -->
    <title>DLF Icon - Positive - RGB</title>
    <desc>Created with Sketch.</desc>
    <defs>
        <linearGradient x1="5.29124555%" y1="89.61516%" x2="88.8232028%" y2="15.60093%" id="linearGradient-1">
            <stop stop-color="#0EA800" offset="0%"></stop>
            <stop stop-color="#106B0C" offset="100%"></stop>
        </linearGradient>
    </defs>
    <g id="Page-1" stroke="none" stroke-width="1" fill="none" fill-rule="evenodd">
        <g id="Parent" transform="translate(-972.000000, -1495.000000)">
            <g id="DLF-Icon---Positive---RGB" transform="translate(972.000000, 1495.000000)">
                <g id="Shape">
                    <path d="M37.5892606,0.00849162011 L0.485387324,24.581648 C0.485387324,24.8241899 0.485387324,27.2586313 0.485387324,27.4985196 L0.485387324,25.2975978 L0.485387324,94.5563128 L13.6896127,94.5563128 L13.6896127,94.5563128 L43.9272887,94.5563128 L48.2492958,87.9206425 L43.9272887,81.2881564 L13.6896127,81.2881564 L13.6896127,31.724162 L13.6948944,31.724162 L37.5892606,15.8994972 L37.5892606,0.00849162011 Z" fill="#0EA800" fill-rule="nonzero"></path>
                    <path d="M74.6931338,25.297067 C74.6931338,25.0577095 74.6931338,24.8241899 74.6931338,24.581648 L37.5892606,0.00849162011 L37.5892606,15.8994972 L61.4836268,31.724162 L61.4889085,31.724162 L61.4889085,94.5170391 L74.6931338,94.5170391 L74.6931338,25.297067 L74.6931338,25.297067 Z" fill="url(#linearGradient-1)" fill-rule="nonzero"></path>
                </g>
            </g>
        </g>
    </g>
</svg>