<?xml version="1.0" encoding="UTF-8"?>
<svg width="95px" height="108px" viewBox="0 0 95 108" version="1.1" xmlns="http://www.w3.org/2000/svg" xmlns:xlink="http://www.w3.org/1999/xlink">
    <!-- Generator: Sketch 47.1 (45422) - http://www.bohemiancoding.com/sketch -->
    <title>icon / electricity</title>
    <desc>Created with Sketch.</desc>
    <defs></defs>
    <g id="Page-1" stroke="none" stroke-width="1" fill="none" fill-rule="evenodd">
        <g id="Parent" transform="translate(-1233.000000, -1098.000000)">
            <g id="icon-/-electricity" transform="translate(1233.000000, 1098.000000)">
                <path d="M72,47.25 C72,40.572 69.381,34.3125 64.6245,29.6235 C59.9535,25.0245 53.7975,22.5 47.25,22.5 C47.1285,22.5 47.0025,22.5 46.881,22.5045 C33.9165,22.6935 22.752,33.804 22.5045,46.7685 C22.311,56.997 28.287,66.1545 37.7325,70.0965 C39.4065,70.794 40.5,72.4365 40.5,74.25 L40.5,81 L54,81 L54,74.25 C54,72.4365 55.0935,70.794 56.7675,70.0965 C66.0195,66.24 72,57.2715 72,47.25 L72,47.25 Z M81,47.25 C81,59.886 74.0295,71.298 63,77.103 L63,81 C63,85.9635 58.9635,90 54,90 L40.5,90 C35.5365,90 31.5,85.9635 31.5,81 L31.5,77.103 C20.2365,71.181 13.2615,59.517 13.5045,46.593 C13.851,28.6065 28.764,13.7655 46.7505,13.5045 C55.872,13.5495 64.4535,16.821 70.9425,23.211 C77.427,29.6055 81,38.1465 81,47.25 L81,47.25 Z M63,96.75 C63,95.508 61.992,94.5 60.75,94.5 L33.75,94.5 C32.508,94.5 31.5,95.508 31.5,96.75 C31.5,97.992 32.508,99 33.75,99 L60.75,99 C61.992,99 63,97.992 63,96.75 L63,96.75 Z M38.25,103.5 C37.008,103.5 36,104.508 36,105.75 C36,106.992 37.008,108 38.25,108 L56.25,108 C57.492,108 58.5,106.992 58.5,105.75 C58.5,104.508 57.492,103.5 56.25,103.5 L38.25,103.5 Z" id="Page-1" fill="#081938"></path>
                <path d="M84.843,14.157 C83.961,13.2795 82.539,13.2795 81.657,14.157 L77.157,18.657 C76.2795,19.539 76.2795,20.961 77.157,21.843 C77.598,22.2795 78.174,22.5 78.75,22.5 C79.326,22.5 79.902,22.2795 80.343,21.843 L84.843,17.343 C85.7205,16.461 85.7205,15.039 84.843,14.157 L84.843,14.157 Z" id="Path" fill="#0EA800"></path>
                <path d="M12.843,18.657 L8.343,14.157 C7.461,13.2795 6.039,13.2795 5.157,14.157 C4.2795,15.039 4.2795,16.461 5.157,17.343 L9.657,21.843 C10.098,22.2795 10.674,22.5 11.25,22.5 C11.826,22.5 12.402,22.2795 12.843,21.843 C13.7205,20.961 13.7205,19.539 12.843,18.657 L12.843,18.657 Z" id="Path" fill="#0EA800"></path>
                <path d="M2.25,49.5 L6.75,49.5 C7.992,49.5 9,48.492 9,47.25 C9,46.008 7.992,45 6.75,45 L2.25,45 C1.008,45 0,46.008 0,47.25 C0,48.492 1.008,49.5 2.25,49.5 L2.25,49.5 Z" id="Path" fill="#0EA800"></path>
                <path d="M92.25,45 L87.75,45 C86.508,45 85.5,46.008 85.5,47.25 C85.5,48.492 86.508,49.5 87.75,49.5 L92.25,49.5 C93.492,49.5 94.5,48.492 94.5,47.25 C94.5,46.008 93.492,45 92.25,45 L92.25,45 Z" id="Path" fill="#0EA800"></path>
                <path d="M49.5,6.75 L49.5,2.25 C49.5,1.008 48.492,0 47.25,0 C46.008,0 45,1.008 45,2.25 L45,6.75 C45,7.992 46.008,9 47.25,9 C48.492,9 49.5,7.992 49.5,6.75 L49.5,6.75 Z" id="Path" fill="#0EA800"></path>
            </g>
        </g>
    </g>
</svg>