<?xml version="1.0" encoding="utf-8"?>
<!-- Generator: Adobe Illustrator 16.0.4, SVG Export Plug-In . SVG Version: 6.00 Build 0)  -->
<!DOCTYPE svg PUBLIC "-//W3C//DTD SVG 1.1//EN" "http://www.w3.org/Graphics/SVG/1.1/DTD/svg11.dtd">
<svg version="1.1" id="Layer_1" xmlns="http://www.w3.org/2000/svg" xmlns:xlink="http://www.w3.org/1999/xlink" x="0px" y="0px"
	 width="100px" height="90px" viewBox="0 0 100 90" enable-background="new 0 0 100 90" xml:space="preserve">
<title>icon / house</title>
<desc>Created with Sketch.</desc>
<g id="Page-1">
	<g id="Parent" transform="translate(-450.000000, -1110.000000)">
		<g id="icon-_x2F_-house" transform="translate(450.000000, 1110.000000)">
			<path id="Fill-1" fill="#FFFFFF" d="M47.296,9.882c1.593-1.192,3.82-1.192,5.405,0L77,28.107v52.875H63.5v-22.5
				c0-2.48-2.02-4.5-4.5-4.5H41c-2.479,0-4.5,2.02-4.5,4.5v22.5H23V28.107L47.296,9.882z M41,80.982v-22.5h18v22.5H41z M7.7,39.582
				l6.3-4.725v46.125c0,4.963,4.037,9,9,9h15.75h22.5H77c4.964,0,9-4.037,9-9V34.857l6.301,4.725c0.81,0.607,1.76,0.9,2.695,0.9
				c1.367,0,2.723-0.621,3.604-1.8c1.489-1.989,1.089-4.811-0.9-6.3l-39.6-29.7c-4.771-3.573-11.43-3.578-16.2,0l-39.6,29.7
				c-1.989,1.49-2.389,4.311-0.9,6.3C2.89,40.671,5.711,41.081,7.7,39.582L7.7,39.582z"/>
			<path id="Combined-Shape" fill="#FFFFFF" d="M50,44.982c-4.963,0-9-4.037-9-9s4.037-9,9-9s9,4.037,9,9S54.964,44.982,50,44.982z
				 M50,31.482c-2.479,0-4.5,2.021-4.5,4.5s2.021,4.5,4.5,4.5c2.48,0,4.5-2.021,4.5-4.5S52.48,31.482,50,31.482z"/>
		</g>
	</g>
</g>
</svg>
