<?xml version="1.0" encoding="UTF-8"?>
<svg width="100px" height="90px" viewBox="0 0 100 90" version="1.1" xmlns="http://www.w3.org/2000/svg" xmlns:xlink="http://www.w3.org/1999/xlink">
    <!-- Generator: Sketch 47.1 (45422) - http://www.bohemiancoding.com/sketch -->
    <title>icon / house</title>
    <desc>Created with Sketch.</desc>
    <defs></defs>
    <g id="Page-1" stroke="none" stroke-width="1" fill="none" fill-rule="evenodd">
        <g id="Parent" transform="translate(-450.000000, -1110.000000)">
            <g id="icon-/-house" transform="translate(450.000000, 1110.000000)">
                <path d="M47.29595,9.882 C48.88895,8.6895 51.11645,8.6895 52.70045,9.882 L77.00045,28.107 L77.00045,80.982 L63.50045,80.982 L63.50045,58.482 C63.50045,56.0025 61.47995,53.982 59.00045,53.982 L41.00045,53.982 C38.52095,53.982 36.50045,56.0025 36.50045,58.482 L36.50045,80.982 L23.00045,80.982 L23.00045,28.107 L47.29595,9.882 Z M41.00045,80.982 L41.00045,58.482 L59.00045,58.482 L59.00045,80.982 L41.00045,80.982 Z M7.70045,39.582 L14.00045,34.857 L14.00045,80.982 C14.00045,85.9455 18.03695,89.982 23.00045,89.982 L38.75045,89.982 L61.25045,89.982 L77.00045,89.982 C81.96395,89.982 86.00045,85.9455 86.00045,80.982 L86.00045,34.857 L92.30045,39.582 C93.11045,40.1895 94.05995,40.482 94.99595,40.482 C96.36395,40.482 97.71845,39.861 98.60045,38.682 C100.08995,36.693 99.68945,33.8715 97.70045,32.382 L58.10045,2.682 C53.33045,-0.891 46.67045,-0.8955 41.90045,2.682 L2.30045,32.382 C0.31145,33.8715 -0.08905,36.693 1.40045,38.682 C2.88995,40.671 5.71145,41.0805 7.70045,39.582 L7.70045,39.582 Z" id="Fill-1" fill="#0B2047"></path>
                <path d="M50.00045,44.982 C45.03695,44.982 41.00045,40.9455 41.00045,35.982 C41.00045,31.0185 45.03695,26.982 50.00045,26.982 C54.96395,26.982 59.00045,31.0185 59.00045,35.982 C59.00045,40.9455 54.96395,44.982 50.00045,44.982 Z M50.00045,31.482 C47.52095,31.482 45.50045,33.5025 45.50045,35.982 C45.50045,38.4615 47.52095,40.482 50.00045,40.482 C52.47995,40.482 54.50045,38.4615 54.50045,35.982 C54.50045,33.5025 52.47995,31.482 50.00045,31.482 Z" id="Combined-Shape" fill="#0EA800"></path>
            </g>
        </g>
    </g>
</svg>