<?xml version="1.0" encoding="UTF-8"?>
<svg width="104px" height="90px" viewBox="0 0 104 90" version="1.1" xmlns="http://www.w3.org/2000/svg" xmlns:xlink="http://www.w3.org/1999/xlink">
    <!-- Generator: Sketch 47.1 (45422) - http://www.bohemiancoding.com/sketch -->
    <title>icon / hpg</title>
    <desc>Created with Sketch.</desc>
    <defs></defs>
    <g id="Page-1" stroke="none" stroke-width="1" fill="none" fill-rule="evenodd">
        <g id="Parent" transform="translate(-450.000000, -1500.000000)">
            <g id="icon-/-hpg" transform="translate(450.000000, 1500.000000)">
                <path d="M48.61305,10.00575 C50.49405,8.66475 53.00505,8.66025 54.88605,10.00575 L80.99055,28.64925 L80.68005,80.98425 L22.49955,80.98425 L22.49955,28.65825 L48.61305,10.00575 Z M7.11405,39.64275 L13.49955,35.08425 L13.49955,80.98425 C13.49955,85.94775 17.68005,89.98425 22.81905,89.98425 L80.68005,89.98425 C85.81905,89.98425 89.99955,85.94775 89.99955,80.98425 L89.99955,35.08425 L96.38505,39.64275 C97.17705,40.20975 98.09055,40.48425 98.99505,40.48425 C100.40355,40.48425 101.78055,39.82725 102.65805,38.59875 C104.10705,36.57375 103.63455,33.76575 101.61405,32.32125 L60.11505,2.68425 C55.11555,-0.89325 48.38355,-0.89325 43.38405,2.67975 L1.88505,32.32125 C-0.13545,33.76575 -0.60795,36.57375 0.84105,38.59875 C2.28105,40.61925 5.09805,41.08275 7.11405,39.64275 L7.11405,39.64275 Z" id="Fill-1" fill="#0B2047"></path>
                <path d="M40.49955,44.98425 C40.49955,40.63725 44.36955,37.00125 49.49955,36.16875 L49.49955,33.73425 C49.49955,32.48775 50.50755,31.48425 51.74955,31.48425 C52.99155,31.48425 53.99955,32.48775 53.99955,33.73425 L53.99955,36.18225 C58.22505,36.86175 61.65405,39.40425 62.68905,42.85575 C62.89605,43.53975 62.99955,44.25975 62.99955,44.98425 C62.99955,46.22625 61.99155,47.23425 60.74955,47.23425 C59.50755,47.23425 58.49955,46.22625 58.49955,44.98425 C58.49955,44.70075 58.45905,44.42175 58.37805,44.15175 C57.75255,42.05925 54.89955,40.48425 51.74955,40.48425 C48.09105,40.48425 44.99955,42.54525 44.99955,44.98425 C44.99955,47.42325 48.09105,49.47975 51.74955,49.47975 C57.95505,49.47975 62.99955,53.51625 62.99955,58.48425 C62.99955,62.83125 59.12955,66.46275 53.99955,67.29975 L53.99955,69.73425 C53.99955,70.97625 52.99155,71.98425 51.74955,71.98425 C50.50755,71.98425 49.49955,70.97625 49.49955,69.73425 L49.49955,67.29975 C44.36955,66.46275 40.49955,62.83125 40.49955,58.48425 C40.49955,57.24225 41.50755,56.23425 42.74955,56.23425 C43.99155,56.23425 44.99955,57.24225 44.99955,58.48425 C44.99955,60.92325 48.09105,62.98425 51.74955,62.98425 C55.40805,62.98425 58.49955,60.92325 58.49955,58.48425 C58.49955,56.04525 55.40805,53.97975 51.74955,53.97975 C45.54405,53.97975 40.49955,49.94325 40.49955,44.98425 L40.49955,44.98425 Z" id="Path" fill="#0EA800"></path>
            </g>
        </g>
    </g>
</svg>