<?xml version="1.0" encoding="utf-8"?>
<!-- Generator: Adobe Illustrator 16.0.4, SVG Export Plug-In . SVG Version: 6.00 Build 0)  -->
<!DOCTYPE svg PUBLIC "-//W3C//DTD SVG 1.1//EN" "http://www.w3.org/Graphics/SVG/1.1/DTD/svg11.dtd">
<svg version="1.1" id="Layer_1" xmlns="http://www.w3.org/2000/svg" xmlns:xlink="http://www.w3.org/1999/xlink" x="0px" y="0px"
	 width="113px" height="98px" viewBox="0 -17 113 98" enable-background="new 0 -17 113 98" xml:space="preserve">
<title>Page 1</title>
<desc>Created with Sketch.</desc>
<g id="Page-1_1_">
	<g id="Parent" transform="translate(-710.000000, -1119.000000)">
		
			<g id="Page-1" transform="translate(767.000000, 1160.000000) scale(-1, 1) translate(-767.000000, -1160.000000) translate(710.000000, 1119.000000)">
			<path id="Fill-1" fill="#0B2047" d="M88.749,72.002c-2.479,0-4.5-2.021-4.5-4.5c0-2.484,2.021-4.5,4.5-4.5
				c2.484,0,4.5,2.016,4.5,4.5C93.249,69.981,91.232,72.002,88.749,72.002L88.749,72.002z M25.748,72.002
				c-2.479,0-4.5-2.021-4.5-4.5c0-2.484,2.021-4.5,4.5-4.5c2.484,0,4.5,2.016,4.5,4.5C30.248,69.981,28.232,72.002,25.748,72.002
				L25.748,72.002z M17.68,36.933c0.297-0.297,0.549-0.634,0.752-0.999l9.967-17.932h13.1v36h-31.5v-9.387L17.68,36.933z
				 M50.498,9.002h54v45h-54v-40.5V9.002z M108.999,0.002h-63c-2.483,0-4.5,2.011-4.5,4.5v4.5h-15.75
				c-1.633,0-3.136,0.886-3.933,2.313L10.871,31.011L2.317,39.57c-0.842,0.841-1.319,1.984-1.319,3.182v24.75
				c0,2.484,2.017,4.5,4.5,4.5h7.583c1.863,5.225,6.813,9,12.667,9c5.859,0,10.81-3.775,12.673-9h37.66
				c1.863,5.225,6.813,9,12.667,9c5.859,0,10.809-3.775,12.672-9h7.578c2.489,0,4.5-2.016,4.5-4.5v-63
				C113.499,2.013,111.487,0.002,108.999,0.002L108.999,0.002z"/>
			<path id="Path" fill="#0EA800" d="M21.487,34.994l6.75-13.5c0.382-0.76,1.161-1.242,2.011-1.242h6.75
				c1.247,0,2.25,1.003,2.25,2.25c0,1.242-1.003,2.25-2.25,2.25h-5.359l-6.124,12.253c-0.396,0.788-1.192,1.247-2.017,1.247
				c-0.337,0-0.684-0.077-1.003-0.239C21.384,37.455,20.93,36.105,21.487,34.994L21.487,34.994z"/>
		</g>
	</g>
</g>
</svg>
