<?xml version="1.0" encoding="UTF-8"?>
<svg width="108px" height="97px" viewBox="0 0 108 97" version="1.1" xmlns="http://www.w3.org/2000/svg" xmlns:xlink="http://www.w3.org/1999/xlink">
    <!-- Generator: Sketch 47.1 (45422) - http://www.bohemiancoding.com/sketch -->
    <title>Group 2</title>
    <desc>Created with Sketch.</desc>
    <defs></defs>
    <g id="Page-1" stroke="none" stroke-width="1" fill="none" fill-rule="evenodd">
        <g id="Parent" transform="translate(-972.000000, -1102.000000)">
            <g id="Group-2" transform="translate(972.000000, 1102.000000)">
                <path d="M83.4666667,92.4615385 L56.2666667,92.4615385 L56.2666667,69.7692308 L60.8,69.7692308 L60.8,81.1153846 C60.8,82.368 61.8154667,83.3846154 63.0666667,83.3846154 L76.6666667,83.3846154 C77.9178667,83.3846154 78.9333333,82.368 78.9333333,81.1153846 L78.9333333,69.7692308 L83.4666667,69.7692308 L83.4666667,92.4615385 Z M24.5333333,69.7692308 L29.0666667,69.7692308 L29.0666667,81.1153846 C29.0666667,82.368 30.0821333,83.3846154 31.3333333,83.3846154 L44.9333333,83.3846154 C46.1845333,83.3846154 47.2,82.368 47.2,81.1153846 L47.2,69.7692308 L51.7333333,69.7692308 L51.7333333,92.4615385 L24.5333333,92.4615385 L24.5333333,69.7692308 Z M35.8666667,69.7692308 L42.6666667,69.7692308 L42.6666667,78.8461538 L33.6,78.8461538 L33.6,69.7692308 L35.8666667,69.7692308 Z M38.1333333,42.5384615 L42.6666667,42.5384615 L42.6666667,53.8846154 C42.6666667,55.1372308 43.6821333,56.1538462 44.9333333,56.1538462 L58.5333333,56.1538462 C59.7845333,56.1538462 60.8,55.1372308 60.8,53.8846154 L60.8,42.5384615 L65.3333333,42.5384615 L65.3333333,65.2307692 L63.0666667,65.2307692 L54,65.2307692 L44.9333333,65.2307692 L38.1333333,65.2307692 L38.1333333,42.5384615 Z M47.2,51.6153846 L56.2666667,51.6153846 L56.2666667,42.5384615 L47.2,42.5384615 L47.2,51.6153846 Z M65.3333333,69.7692308 L67.6,69.7692308 L74.4,69.7692308 L74.4,78.8461538 L65.3333333,78.8461538 L65.3333333,69.7692308 Z M85.7333333,65.2307692 L76.6666667,65.2307692 L69.8666667,65.2307692 L69.8666667,40.2692308 C69.8666667,39.0166154 68.8512,38 67.6,38 L58.5333333,38 L44.9333333,38 L35.8666667,38 C34.6154667,38 33.6,39.0166154 33.6,40.2692308 L33.6,65.2307692 L31.3333333,65.2307692 L22.2666667,65.2307692 C21.0154667,65.2307692 20,66.2473846 20,67.5 L20,94.7307692 C20,95.9833846 21.0154667,97 22.2666667,97 L54,97 L85.7333333,97 C86.9845333,97 88,95.9833846 88,94.7307692 L88,67.5 C88,66.2473846 86.9845333,65.2307692 85.7333333,65.2307692 L85.7333333,65.2307692 Z" id="Page-1" fill="#0EA800"></path>
                <path d="M104.922,16.0247643 C106.7625,16.6383498 108,18.3572914 108,20.301816 L108,31.5809607 C108,34.0759075 105.984,36.0926186 103.5,36.0926186 L101.25,36.0926186 L101.25,92.4883421 C101.25,94.9832889 99.234,97 96.75,97 C94.266,97 92.25,94.9832889 92.25,92.4883421 L92.25,36.0926186 L15.75,36.0926186 L15.75,92.4883421 C15.75,94.9832889 13.734,97 11.25,97 C8.766,97 6.75,94.9832889 6.75,92.4883421 L6.75,36.0926186 L4.5,36.0926186 C2.016,36.0926186 -1.13686838e-13,34.0759075 -1.13686838e-13,31.5809607 L-1.13686838e-13,20.301816 C-1.13686838e-13,18.3166865 1.296,16.5661632 3.1905,15.9841594 L54.9405,0.193356766 C55.8315,-0.0773427066 56.79,-0.0638077329 57.672,0.233961687 L104.922,16.0247643 Z M9,23.6449545 L9,27.0693028 L11.25,27.0693028 C11.772,27.0693028 12.258,27.2001409 12.726,27.3670722 C13.194,27.2001409 13.68,27.0693028 14.202,27.0693028 L95.202,27.0693028 C95.4765,27.0693028 95.715,27.1775826 95.976,27.2272108 C96.237,27.1775826 96.4755,27.0693028 96.75,27.0693028 L99,27.0693028 L99,23.5547213 L56.187,9.24825414 L9,23.6449545 Z" id="Combined-Shape" fill="#0B2047"></path>
            </g>
        </g>
    </g>
</svg>