<?xml version="1.0" encoding="UTF-8"?>
<svg width="95px" height="95px" viewBox="0 0 95 95" version="1.1" xmlns="http://www.w3.org/2000/svg" xmlns:xlink="http://www.w3.org/1999/xlink">
    <!-- Generator: Sketch 47.1 (45422) - http://www.bohemiancoding.com/sketch -->
    <title>icon / suburb profile</title>
    <desc>Created with Sketch.</desc>
    <defs></defs>
    <g id="Page-1" stroke="none" stroke-width="1" fill="none" fill-rule="evenodd">
        <g id="Parent" transform="translate(-715.000000, -1495.000000)">
            <g id="icon-/-suburb-profile" transform="translate(711.000000, 1491.000000)">
                <path d="M81,36 L85.5,36 L85.5,31.5 L81,31.5 L81,36 Z M72,36 L76.5,36 L76.5,31.5 L72,31.5 L72,36 Z M63,45 L67.5,45 L67.5,40.5 L63,40.5 L63,45 Z M63,36 L67.5,36 L67.5,31.5 L63,31.5 L63,36 Z M27,40.5 L31.5,40.5 L31.5,36 L27,36 L27,40.5 Z M18,49.5 L22.5,49.5 L22.5,45 L18,45 L18,49.5 Z M18,40.5 L22.5,40.5 L22.5,36 L18,36 L18,40.5 Z M27,31.5 L31.5,31.5 L31.5,27 L27,27 L27,31.5 Z M18,31.5 L22.5,31.5 L22.5,27 L18,27 L18,31.5 Z M27,22.5 L31.5,22.5 L31.5,18 L27,18 L27,22.5 Z M18,22.5 L22.5,22.5 L22.5,18 L18,18 L18,22.5 Z M99,31.5 C99,33.984 96.984,36 94.5,36 C92.016,36 90,33.984 90,31.5 L90,27 L58.5,27 L58.5,45 C58.5,47.484 56.484,49.5 54,49.5 C51.516,49.5 49.5,47.484 49.5,45 L49.5,27 C49.5,22.0365 53.5365,18 58.5,18 L90,18 C94.9635,18 99,22.0365 99,27 L99,31.5 Z M4.5,49.5 L4.5,13.5 C4.5,8.5365 8.5365,4.5 13.5,4.5 L36,4.5 C40.9635,4.5 45,8.5365 45,13.5 L45,36 C45,38.484 42.984,40.5 40.5,40.5 C38.016,40.5 36,38.484 36,36 L36,13.5 L13.5,13.5 L13.5,49.5 C13.5,51.984 11.484,54 9,54 C6.516,54 4.5,51.984 4.5,49.5 L4.5,49.5 Z M36,54.9135 L49.5,63.909 L49.5,90 L40.5,90 L40.5,83.25 C40.5,82.008 39.492,81 38.25,81 L33.75,81 C32.508,81 31.5,82.008 31.5,83.25 L31.5,90 L22.5,90 L22.5,63.909 L36,54.9135 Z M5.256,69.993 C6.6285,72.0585 9.423,72.6165 11.4975,71.2395 L13.5,69.903 L13.5,90 C13.5,94.9635 17.5365,99 22.5,99 L49.5,99 C54.4635,99 58.5,94.9635 58.5,90 L58.5,69.903 L60.5025,71.2395 C61.272,71.7525 62.1405,71.9955 62.9955,71.9955 C64.449,71.9955 65.88,71.2935 66.744,69.993 C68.121,67.923 67.563,65.1285 65.4975,63.7515 L38.4975,45.7605 C36.9855,44.7525 35.0145,44.7525 33.5025,45.7605 L6.5025,63.7515 C4.437,65.1285 3.879,67.923 5.256,69.993 L5.256,69.993 Z" id="Page-1" fill="#0C2046"></path>
                <path d="M99,54 L99,72 C99,77.859 95.229,82.8045 90,84.672 L90,94.5 C90,96.984 87.984,99 85.5,99 C83.016,99 81,96.984 81,94.5 L81,84.6675 C75.771,82.8045 72,77.859 72,72 L72,54 C72,46.557 78.057,40.5 85.5,40.5 C92.943,40.5 99,46.557 99,54 Z M90,72 L90,54 C90,51.5205 87.9795,49.5 85.5,49.5 C83.0205,49.5 81,51.5205 81,54 L81,72 C81,74.4795 83.0205,76.5 85.5,76.5 C87.9795,76.5 90,74.4795 90,72 Z" id="Combined-Shape" fill="#0EA800"></path>
            </g>
        </g>
    </g>
</svg>