<svg xmlns="http://www.w3.org/2000/svg" width="108" height="109" viewBox="0 0 108 109">
    <g fill="none" fill-rule="evenodd">
        <path fill="#0B2047" d="M79.756 89.707c-21.735 11.56-21.735 11.556-44.163 3.767-2.808-.972-5.95-2.066-9.473-3.258v-15.8h8.339c7.974 0 13.9 5.067 16.078 7.24.36.365.779.658 1.229.874h-8.748a4.499 4.499 0 0 0-4.5 4.5c0 2.488 2.011 4.5 4.5 4.5h23.54c3.469 0 5.678-1.39 6.916-2.556.112-.104.193-.234.301-.342L91.33 82.8c.783-.225 1.53-.396 2.313-.383a1027.128 1027.128 0 0 0-13.887 7.29zM9.002 95.553h8.118V70.137H9.002v25.416zm97.115-15.98c-5.576-5.57-10.9-7.24-17.442-5.368l-13.586 4.504c-1.44-2.655-4.31-4.734-8.532-4.734H55.501c-3.717-3.312-11.16-8.559-21.042-8.559h-8.384c-.121-2.38-2.047-4.28-4.455-4.28H4.502a4.496 4.496 0 0 0-4.5 4.5v34.417c0 2.488 2.012 4.5 4.5 4.5H21.62c2.484 0 4.5-2.012 4.5-4.5v-.324c2.34.796 4.536 1.557 6.52 2.25 11.4 3.955 17.974 6.11 23.972 6.11 7.367 0 13.865-3.253 27.37-10.435 5.49-2.925 12.27-6.525 20.96-10.872a4.492 4.492 0 0 0 2.43-3.307 4.496 4.496 0 0 0-1.255-3.902z"/>
        <path fill="#0EA800" d="M55.856 65.637c-9.562 0-17.338-7.78-17.338-17.339 0-9.562 7.776-17.338 17.338-17.338 9.563 0 17.339 7.776 17.339 17.338 0 9.558-7.776 17.339-17.339 17.339zm0-25.677c-4.599 0-8.338 3.74-8.338 8.338 0 4.6 3.74 8.339 8.338 8.339 4.6 0 8.339-3.74 8.339-8.339s-3.74-8.338-8.339-8.338zm-2.25 12.618v-8.56a2.25 2.25 0 0 1 4.5 0v8.56a2.248 2.248 0 0 1-2.25 2.25 2.248 2.248 0 0 1-2.25-2.25zM85.856 35.637c-9.562 0-17.338-7.78-17.338-17.339C68.518 8.736 76.294.96 85.856.96c9.563 0 17.339 7.776 17.339 17.338 0 9.558-7.776 17.339-17.339 17.339zm0-25.677c-4.599 0-8.338 3.74-8.338 8.338 0 4.6 3.74 8.339 8.338 8.339 4.6 0 8.339-3.74 8.339-8.339s-3.74-8.338-8.339-8.338zm-2.25 12.618v-8.56a2.25 2.25 0 0 1 4.5 0v8.56a2.248 2.248 0 0 1-2.25 2.25 2.248 2.248 0 0 1-2.25-2.25z"/>
    </g>
</svg>
