<svg xmlns="http://www.w3.org/2000/svg" width="108" height="104" viewBox="0 0 108 104">
    <g fill="none" fill-rule="evenodd">
        <path fill="#0B2047" d="M90 47.25v22.5H16.681L5.431 58.5l11.25-11.25H90zM47.25 10h9v26h-9V10zm9-3.25V4.5c0-2.489-2.016-4.5-4.5-4.5a4.499 4.499 0 0 0-4.5 4.5v38.25h-31.5c-.599 0-1.17.239-1.593.657l-13.5 13.5a2.257 2.257 0 0 0 0 3.186l13.5 13.5c.423.418.994.657 1.593.657h31.5V99c0 2.489 2.016 4.5 4.5 4.5s4.5-2.011 4.5-4.5V74.25h36A2.25 2.25 0 0 0 94.5 72V45a2.25 2.25 0 0 0-2.25-2.25h-36v-36z"/>
        <path fill="#0EA800" d="M18 33.75h73.319l11.25-11.25-11.25-11.25H18v22.5zm74.25 4.5h-76.5A2.25 2.25 0 0 1 13.5 36V9a2.25 2.25 0 0 1 2.25-2.25h76.5c.599 0 1.17.239 1.593.657l13.5 13.5a2.257 2.257 0 0 1 0 3.186l-13.5 13.5a2.266 2.266 0 0 1-1.593.657z"/>
    </g>
</svg>
