<svg xmlns="http://www.w3.org/2000/svg" width="86" height="90" viewBox="0 0 86 90">
    <g fill="none" fill-rule="evenodd">
        <path fill="#0B2047" d="M76.5 27H9v-4.5c0-2.484 2.02-4.5 4.5-4.5H72c2.48 0 4.5 2.016 4.5 4.5V27zm0 49.5c0 2.484-2.02 4.5-4.5 4.5H13.5C11.02 81 9 78.984 9 76.5v-45h67.5v45zM72 9h-4.5V4.5C67.5 2.011 65.484 0 63 0a4.499 4.499 0 0 0-4.5 4.5V9H27V4.5C27 2.011 24.984 0 22.5 0A4.499 4.499 0 0 0 18 4.5V9h-4.5C6.057 9 0 15.057 0 22.5v54C0 83.943 6.057 90 13.5 90H72c7.443 0 13.5-6.057 13.5-13.5v-54C85.5 15.057 79.443 9 72 9z"/>
        <path fill="#0EA800" d="M51.678 68.625v-4.496H39.812v-5.634L49.86 40.267h8.829v17.622h3.321v6.241h-3.321v4.496h-7.011zm-4.82-10.656h4.946v-9.517l-.612 1.458-4.334 8.059zM29.484 50.517H23.49V44.64c4.577 0 7.169-1.175 7.938-4.374h5.067v28.359h-7.011V50.517z"/>
    </g>
</svg>
