<?xml version="1.0" encoding="utf-8"?>
<!-- Generator: Adobe Illustrator 16.0.4, SVG Export Plug-In . SVG Version: 6.00 Build 0)  -->
<!DOCTYPE svg PUBLIC "-//W3C//DTD SVG 1.1//EN" "http://www.w3.org/Graphics/SVG/1.1/DTD/svg11.dtd">
<svg version="1.1" id="Layer_1" xmlns="http://www.w3.org/2000/svg" xmlns:xlink="http://www.w3.org/1999/xlink" x="0px" y="0px"
	 width="154px" height="90px" viewBox="0 -24 154 90" enable-background="new 0 -24 154 90" xml:space="preserve">
<g>
	<path fill="#442359" d="M141.934,55.796c-0.445-0.143-0.871,0.141-0.938,0.402c-0.575,2.145-1.31,3.342-3.032,3.205
		c-3.182-0.41-3.013-7.123-3.013-10.092c0-11.187,0.343-24.75,0.343-25.281c0-0.45-0.498-0.778-2.395-1.247
		c-1.125-0.277-1.737-0.378-2.035-0.378c-0.643,0-1.24,0.527-1.24,1.188v14.733c-1.418-1.56-3.284-2.534-5.605-2.562
		c-11.451-0.143-13.261,25.332-1.723,26.918c3.924,0.537,6.787-1.517,8.561-4.699c1.343,3.486,3.478,4.502,4.943,4.8
		c1.04,0.206,4.537-0.138,6.221-3.669C142.621,57.856,142.943,56.122,141.934,55.796z M125.152,59.424
		c-7.627,0-5.896-19.466,0.184-19.387c2.576,0.032,4.141,3.302,4.29,7.573C129.855,54.544,128.816,59.424,125.152,59.424z
		 M111.162,35.786c-4.62,0.736-6.6,7.137-6.6,7.994v-5.575c0-0.45-0.496-0.776-2.391-1.243c-1.128-0.277-1.742-0.38-2.037-0.38
		c-0.642,0-1.244,0.528-1.244,1.187v13.284c-0.019,0.216-0.037,0.435-0.058,0.657c-0.347,3.807-0.688,7.617-3.183,7.617
		c-3.307,0-2.314-6.922-2.271-9.895c0.138-9.199,0.341-11.244,0.341-11.266c0-0.452-0.498-0.78-2.393-1.246
		c-1.126-0.279-1.74-0.38-2.039-0.38c-0.639,0-1.239,0.53-1.239,1.187v0.893c-1.458-1.732-3.417-2.825-5.885-2.858
		c-7.91-0.098-11.222,12.06-8.695,20.095c-0.374,2.127-1.146,3.707-3.169,3.549c-3.181-0.41-3.012-7.122-3.012-10.092
		c0-11.187,0.341-25.258,0.341-25.281c0-0.45-0.497-0.778-2.392-1.246c-1.125-0.277-1.74-0.377-2.038-0.377
		c-0.642,0-1.242,0.525-1.242,1.186v24.43c-0.079,2.434,0.034,4.477,0.282,6.191c-0.517,2.93-1.59,5.348-3.734,5.189
		c-3.181-0.41-3.012-7.122-3.012-10.092c0-11.187,0.34-25.258,0.34-25.281c0-0.45-0.496-0.778-2.393-1.246
		c-1.126-0.277-1.741-0.377-2.037-0.377c-0.64,0-1.243,0.525-1.243,1.186v24.77c-0.368,11.893,3.746,14.096,6.163,14.404
		c1.212,0.15,5.408-0.219,6.754-5.004c1.325,3.775,3.528,4.875,5.058,5.02c0.983,0.09,4.909-0.205,6.481-4.27
		c1.288,2.233,3.215,3.815,5.83,4.17c3.814,0.51,6.626-1.354,8.423-4.304c0.93,3.152,2.51,4.052,4.185,4.39
		c1.252,0.248,4.125,0.02,5.834-2.764v1.365c0,0.451,0.176,0.777,2.07,1.247c1.124,0.276,2.08,0.378,2.373,0.378
		c0.646,0,1.23-0.528,1.23-1.186v-6.801c0-2.896,1.836-13.52,6.367-13.85c0.465-0.015,0.931,0.049,1.377,0.188
		C115.882,42.575,115.811,35.044,111.162,35.786L111.162,35.786z M83.3,59.424c-7.621-0.135-5.898-19.466,0.183-19.387
		c2.922,0.038,4.317,4.237,4.36,9.323C87.883,54.358,86.915,59.485,83.3,59.424z M38.273,35.757
		c-11.447-0.143-13.262,25.062-1.72,26.917C50.939,64.981,52.053,35.929,38.273,35.757z M39.409,59.417
		c-7.623-0.145-5.544-18.743,0.185-19.389C45.997,39.31,46.886,59.558,39.409,59.417L39.409,59.417z M23.838,22.782
		c-1.125-0.276-1.738-0.377-2.035-0.377c-0.642,0-1.241,0.527-1.241,1.188V39.66c-3.532-0.095-6.676,0.034-10.2,0.534L10.344,24.03
		c0-0.45-0.499-0.778-2.394-1.247c-1.126-0.277-1.74-0.378-2.036-0.378c-0.643,0-1.24,0.527-1.24,1.188v17.704
		c-0.385,0.09-2.192,0.479-3.204,0.806c-1.01,0.33-1.152,1.072-0.814,2.1c0.544,1.656,2.37,3.631,3.456,3.177
		c0.27-0.106,0.568-0.19,0.568-0.19c0.005,2.457,0.012,4.915,0.021,7.373l0.006,6.81c0,0.45,0.16,0.78,2.055,1.243
		c1.126,0.281,2.078,0.38,2.374,0.38c0.642,0,1.231-0.526,1.231-1.187V45.507c4.245-0.98,7.524-1.245,10.2-1.441V61.37
		c0,0.451,0.176,0.783,2.072,1.25c1.123,0.277,2.078,0.38,2.373,0.38c0.642,0,1.23-0.53,1.23-1.188V24.03
		c-0.008-0.45-0.505-0.777-2.404-1.246V22.782z"/>
	<path fill="#E64E00" d="M150.145,53.881c-2.203-0.382-4.33,1.468-4.744,3.863c-0.414,2.394,1.029,4.649,3.236,5.03
		c2.194,0.375,4.316-1.256,4.73-3.652C153.779,56.729,152.342,54.265,150.145,53.881L150.145,53.881z"/>
</g>
</svg>
