<svg xmlns="http://www.w3.org/2000/svg" width="95" height="95" viewBox="0 0 95 95">
    <g fill="none" fill-rule="evenodd">
        <path fill="#0C2046" d="M85.819 80.99c0-4.32-2.718-8.244-6.764-9.76L57.91 65.24c-3.546 2.11-7.47 3.46-10.503 3.46-2.912 0-6.7-1.26-10.377-3.46l-21.623 6.107C11.717 72.747 9 76.67 9 80.99v4.833h76.82V80.99zm9 0v9.333c0 2.484-2.016 4.5-4.5 4.5H4.499a4.502 4.502 0 0 1-4.5-4.5V80.99c0-8.05 5.067-15.363 12.605-18.189l16.384-4.63c-2.097-2.673-3.74-5.715-4.4-9.126-2.723-1.39-4.825-4.131-5.657-7.664-.774-3.28-.261-6.38 1.264-8.6l-1.48-8.882c-.072-.64-.815-8.838 5.274-15.566C28.993 2.803 36.872 0 47.407 0c10.539 0 18.418 2.804 23.422 8.334 6.084 6.728 5.346 14.927 5.31 15.273a4.479 4.479 0 0 1-.112.644l-.518 2.074c4.622.923 8.118 5.004 8.118 9.891 0 4.896-3.51 8.987-8.14 9.9-1.845 2.687-4.581 4.644-7.56 4.644h-11.11c-.788 1.319-2.165 2.25-3.812 2.25h-7.466a4.502 4.502 0 0 1-4.5-4.5c0-2.488 2.016-4.5 4.5-4.5h7.466c1.647 0 3.028.927 3.811 2.25h11.11c.293 0 .586-.054.878-.148-1.993-.46-3.51-2.16-3.51-4.298V30.622c0-.194.086-.356.113-.54.022-.185-.023-.365.022-.55l1.764-7.055c.023-.995-.099-4.928-3.123-8.2C60.83 10.778 55.223 9 47.407 9c-7.817 0-13.42 1.778-16.66 5.279-3.437 3.717-3.127 8.289-3.109 8.482l1.823 10.854a4.497 4.497 0 0 1-1.868 4.428c-.076.567.063 1.683.621 2.52.077.113.338.482.54.482 2.484 0 4.5 2.016 4.5 4.5 0 8.28 10.733 14.157 14.153 14.157 1.26 0 4.333-.927 7.222-2.988.068-.05.149-.054.216-.1.284-.18.585-.283.896-.4.243-.08.468-.189.72-.23.288-.053.58-.03.882-.026.297.009.58.009.873.067.085.023.166-.004.252.023l23.395 6.642c7.889 2.938 12.956 10.25 12.956 18.301z"/>
        <path fill="#0EA800" d="M64.2 22.774c-10.65 0-14.575-2.736-16.793-5.715-2.214 2.979-6.138 5.715-16.79 5.715a2.25 2.25 0 0 1 0-4.5c10.917 0 12.722-3.024 13.919-5.022.364-.612.742-1.242 1.278-1.782.85-.842 2.34-.842 3.186 0 .535.54.913 1.17 1.278 1.782 1.197 1.998 3.001 5.022 13.923 5.022a2.25 2.25 0 0 1 0 4.5zM54.872 27.602l-.481-.004c-1.485 0-3.177-.027-4.397 1.188-.733.724-1.107 1.714-1.107 2.93 0 1.241 1.013 2.186 2.255 2.186 1.066 0 1.962-.783 2.196-1.795.31-.014.702-.01 1.017-.01l.517.005.518-.004c.32 0 .697-.005.994.009a2.25 2.25 0 0 0 4.469-.392c0-1.215-.37-2.205-1.107-2.93-1.22-1.214-2.925-1.187-4.392-1.187l-.482.004zM36.22 33.902c1.066 0 1.962-.783 2.196-1.795.306-.014.702-.01 1.012-.01l.518.005.517-.004c.306-.005.689-.01 1 .009a2.248 2.248 0 0 0 4.464-.392c0-1.215-.37-2.205-1.103-2.93-1.22-1.214-2.93-1.187-4.397-1.187l-.481.004-.482-.004c-1.485 0-3.172-.027-4.392 1.188-.733.724-1.107 1.714-1.107 2.93 0 1.241 1.013 2.186 2.255 2.186z"/>
    </g>
</svg>
