<svg xmlns="http://www.w3.org/2000/svg" width="107" height="108" viewBox="0 0 107 108">
    <g fill="none" fill-rule="evenodd">
        <path fill="#0B2047" d="M45 71.86c0 2.484-2.02 4.5-4.5 4.5s-4.5-2.016-4.5-4.5 2.02-4.5 4.5-4.5 4.5 2.016 4.5 4.5zm-13.5 0c0 4.96 4.036 9 9 9 4.963 0 9-4.04 9-9 0-4.963-4.037-9-9-9-4.964 0-9 4.037-9 9zm31.495 27H18v-33.3L38.88 49.9a2.727 2.727 0 0 1 3.24 0L63 65.56l-.005 33.3zM47.52 42.7c-4.136-3.1-9.905-3.1-14.04 0L1.8 66.46a4.496 4.496 0 0 0-.9 6.296 4.492 4.492 0 0 0 6.3.9l1.8-1.35v26.806c0 4.824 3.748 8.748 8.356 8.748h46.287c4.608 0 8.356-3.924 8.356-8.748V72.306l1.8 1.35c.81.607 1.76.9 2.696.9a4.479 4.479 0 0 0 3.604-1.8 4.496 4.496 0 0 0-.9-6.296L47.52 42.7z"/>
        <path fill="#0EA800" d="M86.642 71.464a2.249 2.249 0 0 1-2.961-1.17 2.25 2.25 0 0 1 1.17-2.96c15.75-6.84 17.069-26.258 16.884-34.48-4.477 2.592-12.726 6.08-21.123 3.01a2.252 2.252 0 0 1-1.471-2.132c0-.684.202-15.62 6.83-28.917-8.216 1.228-18.589 5.926-24.038 12.892-3.321 4.244-4.419 8.78-3.253 13.482.166.67.013 1.386-.414 1.93-.432.55-1.125.842-1.782.86-7.857-.045-15.035-9.841-18.261-14.971-2.705 3.77-7.007 11.313-4.37 18.306a2.258 2.258 0 0 1-1.314 2.902c-1.16.45-2.461-.153-2.898-1.31-4.67-12.401 6.719-24.87 7.21-25.393a2.228 2.228 0 0 1 1.93-.702c.715.09 1.35.522 1.692 1.161 2.002 3.686 7.749 12.425 13.302 14.864-.32-4.851 1.246-9.599 4.617-13.905C65.704 5.584 80.189 0 89.963 0c.815 0 1.566.441 1.967 1.152a2.262 2.262 0 0 1-.05 2.281c-6.552 10.63-7.897 24.048-8.172 28.679 9.27 2.272 18.54-4.973 18.635-5.045a2.248 2.248 0 0 1 2.25-.324 2.248 2.248 0 0 1 1.386 1.805c.166 1.336 3.82 32.854-19.337 42.916z"/>
    </g>
</svg>
