<?xml version="1.0" encoding="utf-8"?>
<!-- Generator: Adobe Illustrator 22.0.0, SVG Export Plug-In . SVG Version: 6.00 Build 0)  -->
<svg version="1.1" id="Layer_1" xmlns="http://www.w3.org/2000/svg" xmlns:xlink="http://www.w3.org/1999/xlink" x="0px" y="0px"
	 viewBox="0 0 575.937 179.647" style="enable-background:new 0 0 575.937 179.647;" xml:space="preserve">
<style type="text/css">
	.st0{fill:#FFFFFF;}
	.st1{opacity:0.4;fill:url(#SVGID_1_);}
</style>
<path class="st0" d="M110.985,96.316c-2.834,14.523-7.221,26.439-13.159,35.597c-6.874,10.601-15.944,17.66-28.243,21.888
	c-12.298-4.228-21.369-11.287-28.243-21.888c-9.869-15.22-15.483-38-16.737-67.836l44.98-29.646V4.49l-70.25,46.301
	c0,89.955,32.666,119.622,70.25,129.056c29.399-7.379,55.788-27.141,65.888-78.451L110.985,96.316z"/>
<g>
	<g>
		<g>
			<g>
				<path class="st0" d="M218.932,4.769l-28.688,0.012v81.078h28.688c12.136,0,23.143-4.157,30.994-11.701
					c7.747-7.439,12.014-17.684,12.014-28.856v-0.214c0-11.148-4.271-21.357-12.028-28.742
					C242.066,8.88,231.065,4.769,218.932,4.769 M218.932,16.302c8.967,0,16.663,2.911,22.255,8.422
					c5.289,5.251,8.202,12.559,8.202,20.58v0.226c0,16.948-12.526,28.796-30.457,28.815h-16.458l-0.013-58.042H218.932z"/>
				<path class="st0" d="M298.851,23.836c-8.516,0-16.404,3.332-22.207,9.383c-5.703,5.93-8.846,13.846-8.846,22.294v0.239
					c0,17.625,13.547,31.433,30.836,31.433h0.002c17.484-0.007,31.179-13.921,31.179-31.676v-0.219
					c0-8.391-3.108-16.257-8.753-22.142C315.302,27.145,307.414,23.836,298.851,23.836 M312.5,70.107
					c-3.514,3.869-8.359,5.999-13.644,5.999c-10.682,0-19.055-9.047-19.064-20.592V55.3c0-11.673,8.099-20.475,18.838-20.475
					c10.764,0,19.194,9.087,19.194,20.686v0.243C317.824,61.228,315.934,66.324,312.5,70.107"/>
				<path class="st0" d="M552.739,23.819c-7.215,0-12.975,2.529-17.534,7.714v-6.488h-11.774v60.794h11.774V51.271
					c0-9.567,6.229-16.249,15.149-16.249c8.942,0,13.865,5.537,13.865,15.588v35.229h11.772v-37.33
					C575.991,33.512,566.865,23.819,552.739,23.819"/>
				<path class="st0" d="M464.4,24.15c-7.641,0-13.774,1.469-21.178,5.068l-1.382,0.67l3.654,10.251l1.706-0.845
					c5.596-2.726,10.636-3.942,16.333-3.942c9.732,0,14.752,4.495,14.926,13.359c-4.533-1.167-9.026-1.929-15.471-1.929
					c-7.526,0-13.874,1.767-18.361,5.1c-4.829,3.602-7.377,8.919-7.37,15.376v0.223c0,12.857,11.414,19.585,22.688,19.585
					c8.778,0,14.767-3.575,18.518-7.072v5.843h11.675V49.067c0-7.685-2.144-13.766-6.369-18.068
					C479.316,26.453,472.802,24.15,464.4,24.15 M473.749,72.861c-3.138,2.509-7.465,3.893-12.181,3.893
					c-6.174,0-12.43-3.332-12.43-9.704v-0.228c0-6.148,5.497-9.819,14.705-9.819c6.238,0,10.947,0.996,14.745,2.019v4.017
					C478.589,66.933,476.915,70.328,473.749,72.861"/>
				<rect x="500.835" y="25.044" class="st0" width="11.787" height="60.792"/>
				<path class="st0" d="M506.727,0.112c-4.707,0-8.535,3.83-8.535,8.535c0,4.703,3.828,8.531,8.535,8.531
					c4.709,0,8.54-3.828,8.54-8.531C515.267,3.942,511.437,0.112,506.727,0.112"/>
				<polygon class="st0" points="403.395,21.016 383.186,34.242 362.976,21.016 348.269,30.646 348.269,25.075 336.898,25.075 
					336.898,85.888 348.647,85.888 348.647,44.213 362.976,34.838 377.311,44.213 377.319,85.888 389.082,85.888 389.082,44.213 
					403.395,34.82 417.721,44.2 417.725,85.888 429.478,85.888 429.47,38.133 				"/>
				<path class="st0" d="M218.932,4.769l-28.688,0.012v81.078h28.688c12.136,0,23.143-4.157,30.994-11.701
					c7.747-7.439,12.014-17.684,12.014-28.856v-0.214c0-11.148-4.271-21.357-12.028-28.742
					C242.066,8.88,231.065,4.769,218.932,4.769 M218.932,16.302c8.967,0,16.663,2.911,22.255,8.422
					c5.289,5.251,8.202,12.559,8.202,20.58v0.226c0,16.948-12.526,28.796-30.457,28.815h-16.458l-0.013-58.042H218.932z"/>
				<path class="st0" d="M298.851,23.836c-8.516,0-16.404,3.332-22.207,9.383c-5.703,5.93-8.846,13.846-8.846,22.294v0.239
					c0,17.625,13.547,31.433,30.836,31.433h0.002c17.484-0.007,31.179-13.921,31.179-31.676v-0.219
					c0-8.391-3.108-16.257-8.753-22.142C315.302,27.145,307.414,23.836,298.851,23.836 M312.5,70.107
					c-3.514,3.869-8.359,5.999-13.644,5.999c-10.682,0-19.055-9.047-19.064-20.592V55.3c0-11.673,8.099-20.475,18.838-20.475
					c10.764,0,19.194,9.087,19.194,20.686v0.243C317.824,61.228,315.934,66.324,312.5,70.107"/>
				<path class="st0" d="M552.739,23.819c-7.215,0-12.975,2.529-17.534,7.714v-6.488h-11.774v60.794h11.774V51.271
					c0-9.567,6.229-16.249,15.149-16.249c8.942,0,13.865,5.537,13.865,15.588v35.229h11.772v-37.33
					C575.991,33.512,566.865,23.819,552.739,23.819"/>
				<path class="st0" d="M464.4,24.15c-7.641,0-13.774,1.469-21.178,5.068l-1.382,0.67l3.654,10.251l1.706-0.845
					c5.596-2.726,10.636-3.942,16.333-3.942c9.732,0,14.752,4.495,14.926,13.359c-4.533-1.167-9.026-1.929-15.471-1.929
					c-7.526,0-13.874,1.767-18.361,5.1c-4.829,3.602-7.377,8.919-7.37,15.376v0.223c0,12.857,11.414,19.585,22.688,19.585
					c8.778,0,14.767-3.575,18.518-7.072v5.843h11.675V49.067c0-7.685-2.144-13.766-6.369-18.068
					C479.316,26.453,472.802,24.15,464.4,24.15 M473.749,72.861c-3.138,2.509-7.465,3.893-12.181,3.893
					c-6.174,0-12.43-3.332-12.43-9.704v-0.228c0-6.148,5.497-9.819,14.705-9.819c6.238,0,10.947,0.996,14.745,2.019v4.017
					C478.589,66.933,476.915,70.328,473.749,72.861"/>
				<rect x="500.835" y="25.044" class="st0" width="11.787" height="60.792"/>
				<path class="st0" d="M506.727,0.112c-4.707,0-8.535,3.83-8.535,8.535c0,4.703,3.828,8.531,8.535,8.531
					c4.709,0,8.54-3.828,8.54-8.531C515.267,3.942,511.437,0.112,506.727,0.112"/>
				<polygon class="st0" points="403.395,21.016 383.186,34.242 362.976,21.016 348.269,30.646 348.269,25.075 336.898,25.075 
					336.898,85.888 348.647,85.888 348.647,44.213 362.976,34.838 377.311,44.213 377.319,85.888 389.082,85.888 389.082,44.213 
					403.395,34.82 417.721,44.2 417.725,85.888 429.478,85.888 429.47,38.133 				"/>
			</g>
		</g>
	</g>
</g>
<g>
	<g>
		<path class="st0" d="M190.244,113.902h10.596v64.857h-10.596V113.902z"/>
		<path class="st0" d="M242.308,137.379v41.38h-10.596v-65.587l44.303,42.111v-41.381h10.596v65.588L242.308,137.379z"/>
		<path class="st0" d="M312.091,168.436l8.038-6.76c3.014,4.111,8.039,7.765,13.702,7.765c6.303,0,9.957-2.831,9.957-7.49
			c0-4.841-3.014-7.673-9.409-10.505l-5.115-2.192c-9.774-4.294-14.616-10.505-14.616-18.91c0-10.413,9.409-17.173,19.275-17.173
			c7.49,0,13.428,2.557,18.178,8.221l-7.308,7.582c-3.38-4.019-6.303-5.755-10.962-5.755c-4.385,0-8.586,2.558-8.586,7.034
			c0,4.203,2.923,7.217,9.409,9.957l5.024,2.284c8.861,3.837,14.89,9.5,14.89,18.543c0,10.961-8.13,18.452-20.644,18.452
			C324.149,179.49,316.201,175.105,312.091,168.436z"/>
		<path class="st0" d="M380.413,153.547v-39.645h10.596v39.919c0,10.049,6.303,15.62,15.529,15.62s15.437-5.571,15.437-15.62
			v-39.919h10.596v39.645c0,15.986-10.779,25.943-26.034,25.943C391.283,179.49,380.413,169.533,380.413,153.547z"/>
		<path class="st0" d="M479.337,151.172h-6.12v27.587H462.62v-64.857h21.01c12.058,0,20.644,7.765,20.644,18.636
			c0,8.403-5.115,15.072-13.336,17.63l20.644,28.591h-12.697L479.337,151.172z M482.625,141.946c7.308,0,10.87-3.562,10.87-9.043
			c0-5.572-3.562-9.227-10.87-9.227h-9.409v18.27H482.625z"/>
		<path class="st0" d="M535.875,113.902h38.457v10.414h-27.86v16.443h22.38v10.231h-22.38v17.355h27.86v10.414h-38.457V113.902z"/>
	</g>
</g>
<g>
	<linearGradient id="SVGID_1_" gradientUnits="userSpaceOnUse" x1="139.833" y1="34.3696" x2="69.5833" y2="34.3696">
		<stop  offset="0" style="stop-color:#FFFFFF"/>
		<stop  offset="1" style="stop-color:#FFFFFF;stop-opacity:0.5"/>
	</linearGradient>
	<path class="st1" d="M139.833,50.791L69.583,4.49v29.942l45.24,29.817h0.01C114.834,64.249,139.833,51.248,139.833,50.791z"/>
</g>
</svg>
